<svg width="149" height="33" viewBox="0 0 149 33" fill="none" xmlns="http://www.w3.org/2000/svg">
<mask id="mask0_58_1772" style="mask-type:alpha" maskUnits="userSpaceOnUse" x="1" y="0" width="148" height="33">
<path d="M1.25586 17.5H148.756" stroke="black" stroke-width="1.5"/>
<path d="M1.25586 8.5H148.756" stroke="black" stroke-width="1.5"/>
<path d="M1.25586 27H148.756" stroke="black" stroke-width="1.5"/>
<path d="M1.25586 3.5H148.756" stroke="black" stroke-width="1.5"/>
<path d="M1.25586 22H148.756" stroke="black" stroke-width="1.5"/>
<path d="M1.25586 13H148.756" stroke="black" stroke-width="1.5"/>
<path d="M1.25586 31.5H148.756" stroke="black" stroke-width="1.5"/>
<path d="M1.25586 1.5H148.756" stroke="black" stroke-width="1.5"/>
<path d="M1.25586 20H148.756" stroke="black" stroke-width="1.5"/>
<path d="M1.25586 11H148.756" stroke="black" stroke-width="1.5"/>
<path d="M1.25586 29.5H148.756" stroke="black" stroke-width="1.5"/>
<path d="M1.25586 6H148.756" stroke="black" stroke-width="1.5"/>
<path d="M1.25586 24.5H148.756" stroke="black" stroke-width="1.5"/>
<path d="M1.25586 15.5H148.756" stroke="black" stroke-width="1.5"/>
</mask>
<g mask="url(#mask0_58_1772)">
<path d="M125.349 31.9905V0H132.304V31.9905H125.349Z" fill="#75FF86"/>
<path d="M104.742 26.5092C105.746 26.5092 106.655 26.4664 107.467 26.3809C108.279 26.2741 108.92 26.1245 109.39 25.9322C110.544 25.4834 111.538 24.8103 112.371 23.9127C113.076 23.2075 113.675 22.139 114.166 20.7073C114.593 19.361 114.807 17.9078 114.807 16.3479C114.893 12.8432 114.027 10.1613 112.211 8.30214C110.544 6.44298 108.033 5.49202 104.678 5.44928H98.4269V26.5092H104.742ZM105.127 31.9905H91.5352V0H104.934C107.67 0 109.732 0.213698 111.121 0.641092C112.66 1.02575 114.102 1.74163 115.448 2.78875C117.372 4.24189 118.814 6.10106 119.776 8.36625C120.823 10.4819 121.325 13.0783 121.282 16.1555C121.282 19.0832 120.716 21.6582 119.583 23.8807C118.515 26.1886 116.944 28.1012 114.871 29.6185C113.632 30.4946 112.328 31.1037 110.961 31.4456C109.593 31.8089 107.648 31.9905 105.127 31.9905Z" fill="#75FF86"/>
<path d="M69.5953 14.8413H77.3525C78.8911 14.7985 80.0985 14.4353 80.9747 13.7514C81.5089 13.3027 81.8722 12.8112 82.0645 12.2769C82.2782 11.7213 82.3958 10.9413 82.4171 9.93693C82.3958 8.8257 81.947 7.87475 81.0708 7.08407C80.2374 6.37887 79.0621 5.97284 77.5448 5.86599H69.5953V14.8413ZM69.5953 31.9905H63.6972V21.2522H37.0322V14.8413H63.7613V0H76.5511C80.1199 0 82.9621 0.854789 85.0777 2.56437C86.9155 4.08162 87.9626 6.11174 88.219 8.65474C88.3259 10.6849 88.2831 12.1166 88.0908 12.9501C87.8985 13.7835 87.5779 14.8092 87.1292 16.0273C86.5308 17.1385 85.6867 18.0895 84.5968 18.8802C83.5284 19.6708 82.4278 20.2692 81.2952 20.6752L87.61 31.9905H81.1029L75.0766 21.0278H69.5953V31.9905Z" fill="#75FF86"/>
<path d="M45.7665 0V6.05832H21.1913V31.9905H14.4278V6.05832H3.25586V0H45.7665Z" fill="#75FF86"/>
<path fill-rule="evenodd" clip-rule="evenodd" d="M26.5439 32L39.5409 0H47.3868L60.3839 32H52.6937L43.4639 9.27534L34.234 32H26.5439Z" fill="#75FF86"/>
</g>
</svg>
